<svg xmlns="http://www.w3.org/2000/svg" viewBox="0 0 248.27 293.33"><defs><style>.cls-1,.cls-2{fill:none;stroke-miterlimit:10;}.cls-1{stroke:#d26e32;}.cls-2{stroke:#fff7f8;stroke-width:2px;}</style></defs><title>Asset 1</title><g id="Layer_2" data-name="Layer 2"><g id="Layer_1-2" data-name="Layer 1"><circle class="cls-1" cx="121.58" cy="73.1" r="47.64"/><circle class="cls-1" cx="163.13" cy="170.63" r="39.94"/><circle class="cls-1" cx="202.25" cy="253.19" r="36.12"/><path class="cls-1" d="M57.25,4.82a34.81,34.81,0,0,1,0,69.62"/><line class="cls-1" x1="57.25" y1="4.13" x2="57.54" y2="105.06"/><path class="cls-1" d="M189.24,52.21a30.25,30.25,0,1,1,0,60.49"/><line class="cls-1" x1="189.24" y1="51.54" x2="189.24" y2="151.09"/><line class="cls-1" x1="189.24" y1="112.7" x2="226.49" y2="149.95"/><polyline class="cls-1" points="0 116.37 45.71 116.37 91.41 116.37"/><line class="cls-1" x1="45.71" y1="214.96" x2="45.71" y2="116.37"/><polyline class="cls-1" points="72.69 193.13 72.69 152.16 72.69 131.13 109.06 131.13"/><line class="cls-1" x1="92.05" y1="152.38" x2="72.69" y2="152.16"/><polyline class="cls-2" points="88.75 176.16 88.75 254.55 120.41 254.55"/><polyline class="cls-1" points="83.49 182.65 83.49 261.04 115.15 261.04"/><line class="cls-2" x1="133.76" y1="234.64" x2="133.76" y2="293.33"/><circle class="cls-1" cx="138.01" cy="218.6" r="4.25"/><line class="cls-1" x1="138.01" y1="231.02" x2="138.01" y2="289.71"/><path class="cls-2" d="M196.25,41.46a30.73,30.73,0,0,1,0,61.46"/><line class="cls-2" x1="196.25" y1="40.27" x2="196.25" y2="142.21"/><line class="cls-2" x1="196.25" y1="103.2" x2="234.01" y2="140.97"/><circle class="cls-2" cx="169.68" cy="160.08" r="39.94"/><polyline class="cls-2" points="9.74 111.99 55.45 111.99 101.16 111.99"/><line class="cls-2" x1="55.45" y1="210.58" x2="55.45" y2="111.99"/><polyline class="cls-2" points="68.15 188.82 68.15 147.85 68.15 126.83 103.37 126.83"/><line class="cls-2" x1="87.51" y1="148.07" x2="68.15" y2="147.85"/><circle class="cls-2" cx="133.76" cy="222.22" r="4.25"/><circle class="cls-2" cx="211.15" cy="244.29" r="36.12"/><line class="cls-2" x1="62.01" x2="62.01" y2="105.06"/><circle class="cls-2" cx="129.74" cy="64.35" r="47.64"/><path class="cls-2" d="M62,1.27a34.81,34.81,0,0,1,0,69.62"/></g></g></svg>